<svg xmlns="http://www.w3.org/2000/svg" viewBox="0 0 320.26 288.06"><defs><style>.cls-1{fill:#fff;}</style></defs><title>game</title><g id="Layer_2" data-name="Layer 2"><g id="Layer_1-2" data-name="Layer 1"><path class="cls-1" d="M144.2,80.1c0-2.06,0-3.54,0-5,0-19.62-.11-39.24.05-58.87C144.34,4.9,154.67-2.56,165.12.82,171.91,3,176,9,176.06,17c0,19.37,0,38.74,0,58.12,0,1.48,0,3,0,4.81,1.64.08,3,.19,4.29.2,12.12,0,24.25-.1,36.37,0,51.61.59,94,37.11,102.23,88,9.4,58-33.23,113.47-91.75,119.19-6.08.59-12.22.66-18.34.67q-51.93.09-103.86,0c-50.4-.1-92-33.72-102.74-83C-10,148.75,28.83,91,85.68,81.88c10.89-1.75,22.14-1.4,33.23-1.73C127.13,79.9,135.37,80.1,144.2,80.1Zm-64.08,88c-5.92,0-11.15-.11-16.39,0a15.69,15.69,0,0,0-15.48,16c0,9.06,6.75,15.75,16.28,16,5.07.14,10.15,0,15.55,0,0,5.49-.1,10.47,0,15.44.23,8.78,6.1,15.53,14,16.32,10,1,17.82-6,18-16,.08-5.18,0-10.36,0-15.7,5.61,0,10.6.12,15.59,0,11-.33,18.24-9.39,15.94-19.7a15.93,15.93,0,0,0-15.49-12.31c-5.31-.11-10.62,0-16,0,0-5.6.05-10.59,0-15.58-.11-9.35-7-16.37-15.93-16.44-8.71-.07-15.69,6.76-16,15.94C80,157.17,80.12,162.4,80.12,168.06Zm128,39.91a16.18,16.18,0,0,0,15.93,16.09c8.54.16,16.14-7.39,16.07-16a16,16,0,0,0-32-.12ZM272,160a15.9,15.9,0,1,0-15.88,16A15.9,15.9,0,0,0,272,160Z"/></g></g></svg>