<svg xmlns="http://www.w3.org/2000/svg" viewBox="0 0 316.09 306.12"><defs><style>.cls-1{fill:#fff;}</style></defs><title>home</title><g id="Layer_2" data-name="Layer 2"><g id="Layer_1-2" data-name="Layer 1"><path class="cls-1" d="M316.09,136.36v5.55a32.61,32.61,0,0,1-15.91,17.6c-3.64,1.9-7.3,1.85-10.47-1.39-1.38-1.42-3-2.6-5.07-4.34v4.33q0,65.58,0,131.17c0,10-6.15,16.65-15.82,16.73-19.24.16-38.48.12-57.72,0-6.8,0-12.06-3.76-13.89-9.76a26.76,26.76,0,0,1-.91-7.59q-.06-32.5,0-65H125.81v15c0,16.77,0,33.54,0,50.31,0,10.36-6.25,17-16.2,17-17.9.11-35.8.07-53.7,0-6.76,0-12.06-2.91-14.76-9.21a22.66,22.66,0,0,1-1.46-8.72q-.14-66-.06-132.1v-4.2c-3.63,3.23-6.5,6-9.63,8.48a20.07,20.07,0,0,1-6.59,3.77c-7.21,2-12.65-1.28-17.47-6.39-8.17-8.7-7.91-17,.9-25.06Q75.66,69.54,144.46,6.43c9.2-8.44,18-8.58,27.35-.38q67.8,59.34,135.65,118.65C311.24,128,314.66,131.4,316.09,136.36Z"/></g></g></svg>