<svg xmlns="http://www.w3.org/2000/svg" viewBox="0 0 303.25 303.26"><defs><style>.cls-1{fill:#fff;}</style></defs><title>info</title><g id="Layer_2" data-name="Layer 2"><g id="Layer_1-2" data-name="Layer 1"><path class="cls-1" d="M303.25,142.15v17.77c-.24,2.14-.5,4.27-.73,6.41-2.69,24.64-10.48,47.53-24.3,68.13-24.14,36-57.4,58.47-100.18,66.44-5.6,1-11.29,1.59-16.94,2.36H143.32c-1-.18-1.91-.4-2.87-.54-6.63-1-13.35-1.51-19.86-3C81.4,291,50.25,270,27.27,237.18,6,206.84-2.81,172.94.78,136.09A144.24,144.24,0,0,1,34.68,55.53c29-34.36,66.11-53,111-55.33a143.43,143.43,0,0,1,83.64,21.15c39.07,23.88,63,58.47,71.52,103.57C302,130.61,302.47,136.4,303.25,142.15ZM134.44,186.87q0,4.29,0,8.59c0,12-.09,24.09,0,36.13.13,13,11.84,21.4,23.82,17.2,7.24-2.54,11.67-9.2,11.68-17.79q0-30.06,0-60.12c0-9.38.06-18.76,0-28.13-.07-8.12-4.64-14.74-11.67-17.2-12-4.2-23.71,4.18-23.82,17.2C134.34,157.45,134.44,172.16,134.44,186.87Zm17.8-133.54A17.75,17.75,0,1,0,170,71.11,17.92,17.92,0,0,0,152.24,53.33Z"/></g></g></svg>