<svg xmlns="http://www.w3.org/2000/svg" viewBox="0 0 319.88 255.94"><defs><style>.cls-1{fill:#fff;}</style></defs><title>leaderboard</title><g id="Layer_2" data-name="Layer 2"><g id="Layer_1-2" data-name="Layer 1"><path class="cls-1" d="M199.88,255.91H120v-4.28q0-120.36,0-240.72C120,2.47,122.48,0,131,0h58.12c8.28,0,10.78,2.48,10.78,10.71q0,120.55,0,241.1C199.88,253,199.88,254.28,199.88,255.91Z"/><path class="cls-1" d="M319.69,255.93H240.16c-.07-1.49-.18-2.82-.18-4.15q0-88.66,0-177.32c0-7.85,2.48-10.33,10.28-10.34q29.8,0,59.6,0c7.35,0,10,2.59,10,9.89q0,89,0,178.07C319.87,253.3,319.76,254.52,319.69,255.93Z"/><path class="cls-1" d="M79.69,255.94H0c0-1.51,0-2.83,0-4.16Q0,195.2,0,138.61c0-8.05,2.49-10.55,10.5-10.55H69.7c7.5,0,10.19,2.65,10.19,10.12q0,57,0,113.91C79.87,253.31,79.76,254.52,79.69,255.94Z"/></g></g></svg>