<svg xmlns="http://www.w3.org/2000/svg" viewBox="0 0 487.04 462.16"><defs><style>.cls-1{fill:#fff;}</style></defs><title>logout</title><g id="Layer_2" data-name="Layer 2"><g id="Layer_1-2" data-name="Layer 1"><path class="cls-1" d="M246.78,119.11v-36a18.4,18.4,0,0,0-18.4-18.4H89.91a18.4,18.4,0,0,0-18.4,18.4V379a18.4,18.4,0,0,0,18.4,18.4H228.38a18.4,18.4,0,0,0,18.4-18.4V343a15.56,15.56,0,0,1,15.56-15.56h38.91A15.56,15.56,0,0,1,316.8,343v59.14a60,60,0,0,1-60,60H60a60,60,0,0,1-60-60V60A60,60,0,0,1,60,0H256.83a60,60,0,0,1,60,60v59.14a15.56,15.56,0,0,1-15.56,15.56H262.33A15.56,15.56,0,0,1,246.78,119.11Z"/><path class="cls-1" d="M482.51,236.9,390.82,318A13.41,13.41,0,0,1,368.49,308V273.32H192.93a17.63,17.63,0,0,1-17.63-17.63V206.47a17.63,17.63,0,0,1,17.63-17.63H368.49V154.2a13.39,13.39,0,0,1,21.77-10.53L482,216.32A13.42,13.42,0,0,1,482.51,236.9Z"/></g></g></svg>