<svg width="19.738" height="19.738" xmlns="http://www.w3.org/2000/svg">

 <g>
  <title>Layer 1</title>
  <g id="svg_1">
   <path id="svg_2" fill="#ffffff" d="m18.18,19.738l-2,0c0,-3.374 -2.83,-6.118 -6.311,-6.118s-6.31,2.745 -6.31,6.118l-2,0c0,-4.478 3.729,-8.118 8.311,-8.118c4.581,0 8.31,3.64 8.31,8.118z"/>
   <path id="svg_3" fill="#ffffff" d="m9.87,10.97c-3.023,0 -5.484,-2.462 -5.484,-5.485c-0.001,-3.024 2.46,-5.485 5.484,-5.485c3.025,0 5.486,2.46 5.486,5.485s-2.461,5.485 -5.486,5.485zm0,-8.97c-1.922,0 -3.485,1.563 -3.485,3.485s1.563,3.485 3.485,3.485c1.923,0 3.486,-1.563 3.486,-3.485s-1.565,-3.485 -3.486,-3.485z"/>
  </g>
  <g id="svg_4"/>
  <g id="svg_5"/>
  <g id="svg_6"/>
  <g id="svg_7"/>
  <g id="svg_8"/>
  <g id="svg_9"/>
  <g id="svg_10"/>
  <g id="svg_11"/>
  <g id="svg_12"/>
  <g id="svg_13"/>
  <g id="svg_14"/>
  <g id="svg_15"/>
  <g id="svg_16"/>
  <g id="svg_17"/>
  <g id="svg_18"/>
 </g>
</svg>