<svg xmlns="http://www.w3.org/2000/svg" viewBox="0 0 798.53 344.4"><defs><style>.cls-1{fill:#fff;}</style></defs><title>smile</title><g id="Layer_2" data-name="Layer 2"><g id="Layer_1-2" data-name="Layer 1"><path class="cls-1" d="M733.88,20.56H755.6v22h21.12V64.16H756.06v43.16h20.87V172h21.59v43.44H777.19v64.41H755.91V344.4H712.79V280.23h20.68V107.65H712.8V42.82H734c0-7.85,0-15.13,0-22.4Z"/><path class="cls-1" d="M42.9,258.49H21.24V193.87H0V150.71H21V86H42.54V21.49H85.65v64.3H64.89V258.41H85.63v64.46H42.9Z"/><path class="cls-1" d="M388.38,258.56V279.5H517.89V258.56h21.6V237.22h21.34v42.57h-21.1v21.87H518v21.16H388.58v-21H367V280H345.41V237.21h21.33v21.35Z"/><path class="cls-1" d="M215.88,85.65H194.1V43.17H172.65V64H151.17V21.21h42.66V0H344.72c0,7,0,13.88,0,20.78l.09-.09c-2,.17-3.94.49-5.91.49q-37,.05-73.91,0h-6.3V42.82l.15-.14H215.71V85.82Z"/><path class="cls-1" d="M604.92,85.66H583V43.08H561.26V64H539.91V21.21h42.58V.07H733.87c0,6.68,0,13.59,0,20.49l.14-.15a48.31,48.31,0,0,1-5.79.71q-38.2.1-76.39.09c-1.15,0-2.29.1-4.11.18V42.81l.13-.12H604.72V85.82Z"/><path class="cls-1" d="M452.26,86.15H432V0h21.21c0,9.79,0,19.4,0,29,0,17.33,0,34.66-.1,52a29.93,29.93,0,0,1-.94,5.22Z"/><path class="cls-1" d="M496.7,171.61v21.77H431.94V172.31c1.82-.08,3.45-.23,5.07-.23q26.68,0,53.36,0c2.15,0,4.29-.26,6.44-.39Z"/><path class="cls-1" d="M496.81,171.72q.06-32,.12-64.07l-.11.1h20.77v63.86H496.7Z"/><path class="cls-1" d="M452.17,86.23h44.65c0,7.07,0,14.3,0,21.53l.11-.1H453.61c-.46-7.56-.88-14.54-1.32-21.52Z"/><path class="cls-1" d="M258.7,42.82h21.56V85.66H258.7l.15.16q0-21.57,0-43.13Z"/><path class="cls-1" d="M258.7,85.66v21.65H215.88q0-10.8,0-21.66l-.17.17h43.13Z"/><path class="cls-1" d="M647.72,85.69v21.61h-42.8c0-7.25,0-14.44,0-21.63l-.2.16h43.12Z"/><path class="cls-1" d="M647.72,42.81h21.16V85.69H647.72l.12.13q0-21.56,0-43.12Z"/><path class="cls-1" d="M366.78,42.74h-22c0-7.54,0-14.8,0-22.06l-.09.09h21.92v22.1Z"/><path class="cls-1" d="M366.64,42.88h21.59V64H366.78q0-10.66,0-21.26Z"/></g></g></svg>